<svg width="434" height="250" viewBox="0 0 434 250" fill="none" xmlns="http://www.w3.org/2000/svg">
<g id="Group 10">
<path id="Path 3" fill-rule="evenodd" clip-rule="evenodd" d="M374.872 -183.487C291.784 -209.517 206.349 -252.933 118.882 -173.633C31.415 -94.3323 -23.5749 -24.8655 11.936 65.0158C47.4468 154.897 192.399 98.9136 234.515 179.246C276.632 259.578 184.092 332.487 223.988 403.982C263.884 475.478 294.561 521.3 422.773 475.841C550.985 430.382 539.164 314.714 636.664 246.98C734.163 179.246 839.651 77.8456 694.885 -103.09C550.119 -284.025 457.96 -157.457 374.872 -183.487Z" stroke="#9E96C6"/>
<path id="Path 3 Copy" fill-rule="evenodd" clip-rule="evenodd" d="M384.985 -142.161C317.428 -163.299 247.963 -198.556 176.846 -134.159C105.73 -69.7621 61.0189 -13.3508 89.8917 59.6384C118.765 132.628 236.621 87.1654 270.865 152.4C305.108 217.635 229.867 276.841 262.305 334.9C294.744 392.959 319.686 430.169 423.932 393.254C528.178 356.338 518.566 262.408 597.84 207.404C677.114 152.4 762.883 70.057 645.178 -76.8735C527.473 -223.804 452.541 -121.023 384.985 -142.161Z" stroke="#9E96C6"/>
<path id="Path 3 Copy 2" fill-rule="evenodd" clip-rule="evenodd" d="M404.804 -113.491C349.955 -130.722 293.557 -159.464 235.817 -106.967C178.078 -54.471 141.777 -8.48457 165.219 51.0161C188.661 110.517 284.348 73.4561 312.151 126.636C339.953 179.815 278.865 228.08 305.201 275.409C331.538 322.738 351.788 353.072 436.425 322.979C521.062 292.885 513.259 216.314 577.621 171.475C641.983 126.636 711.619 59.5093 616.055 -60.2682C520.49 -180.046 459.653 -96.2589 404.804 -113.491Z" stroke="#9E96C6"/>
<path id="Path 3 Copy 5" fill-rule="evenodd" clip-rule="evenodd" d="M424.91 -80.1228C380.705 -93.9593 335.251 -117.038 288.716 -74.8848C242.182 -32.732 212.926 4.19353 231.818 51.9706C250.711 99.7476 327.829 69.9891 350.236 112.69C372.643 155.392 323.41 194.147 344.636 232.15C365.861 270.154 382.182 294.511 450.394 270.347C518.607 246.183 512.317 184.699 564.19 148.695C616.062 112.69 672.184 58.7903 595.165 -37.387C518.146 -133.564 469.115 -66.2862 424.91 -80.1228Z" stroke="#9E96C6"/>
<path id="Path 3 Copy 4" fill-rule="evenodd" clip-rule="evenodd" d="M430.256 -58.5595C394.196 -69.877 357.119 -88.7536 319.159 -54.2751C281.2 -19.7966 257.335 10.4063 272.746 49.4852C288.157 88.564 351.065 64.2233 369.343 99.1504C387.621 134.078 347.46 165.777 364.774 196.862C382.088 227.947 395.402 247.869 451.044 228.105C506.686 208.34 501.556 158.049 543.87 128.6C586.183 99.1504 631.963 55.0633 569.137 -23.6041C506.311 -102.272 466.315 -47.2421 430.256 -58.5595Z" stroke="#9E96C6"/>
<path id="Path 3 Copy 3" fill-rule="evenodd" clip-rule="evenodd" d="M440.955 -42.4982C411.63 -51.6617 381.476 -66.9457 350.605 -39.0292C319.735 -11.1128 300.327 13.3419 312.86 44.9831C325.393 76.6244 376.553 56.9163 391.417 85.196C406.282 113.476 373.621 139.142 387.702 164.311C401.783 189.48 412.61 205.61 457.861 189.607C503.112 173.604 498.94 132.885 533.352 109.041C567.763 85.196 604.994 49.4996 553.901 -14.1956C502.807 -77.8909 470.28 -33.3347 440.955 -42.4982Z" stroke="#9E96C6"/>
</g>
</svg>
