<svg width="699" height="651" viewBox="0 0 699 651" fill="none" xmlns="http://www.w3.org/2000/svg">
<g id="Group 17">
<path id="Path 3" fill-rule="evenodd" clip-rule="evenodd" d="M341.639 33.3254C265.936 9.63167 188.096 -29.8875 108.404 42.2949C28.7114 114.477 -21.3904 177.709 10.9639 259.522C43.3182 341.336 175.386 290.377 213.758 363.499C252.131 436.621 167.817 502.984 204.167 568.062C240.516 633.14 268.466 674.849 385.282 633.471C502.098 592.092 491.327 486.807 580.16 425.153C668.993 363.499 765.104 271.2 633.206 106.506C501.309 -58.1879 417.341 57.0191 341.639 33.3254Z" stroke="#96A9C6"/>
<path id="Path 3 Copy" fill-rule="evenodd" clip-rule="evenodd" d="M351.105 71.2488C289.522 52.0091 226.2 19.9188 161.371 78.5323C96.5429 137.146 55.7857 188.491 82.1055 254.925C108.425 321.359 215.86 279.98 247.076 339.356C278.292 398.732 209.704 452.621 239.274 505.465C268.843 558.31 291.58 592.178 386.608 558.578C481.636 524.978 472.875 439.484 545.139 389.42C617.403 339.356 695.588 264.408 588.291 130.673C480.994 -3.06168 412.688 90.4885 351.105 71.2488Z" stroke="#96A9C6"/>
<path id="Path 3 Copy 2" fill-rule="evenodd" clip-rule="evenodd" d="M368.812 96.4174C318.85 80.719 267.478 54.5353 214.883 102.36C162.289 150.185 129.223 192.08 150.576 246.286C171.929 300.492 259.09 266.729 284.414 315.176C309.739 363.624 254.095 407.594 278.084 450.712C302.074 493.829 320.52 521.464 397.615 494.048C474.71 466.633 467.602 396.875 526.229 356.026C584.856 315.176 648.287 254.023 561.238 144.904C474.189 35.7846 418.773 112.116 368.812 96.4174Z" stroke="#96A9C6"/>
<path id="Path 3 Copy 5" fill-rule="evenodd" clip-rule="evenodd" d="M387.316 127.184C347.021 114.588 305.588 93.5806 263.169 131.952C220.75 170.323 194.082 203.936 211.304 247.427C228.525 290.918 298.822 263.829 319.247 302.7C339.672 341.57 294.794 376.848 314.142 411.443C333.49 446.038 348.367 468.21 410.546 446.213C472.725 424.217 466.992 368.248 514.276 335.474C561.56 302.7 612.718 253.635 542.512 166.086C472.305 78.5365 427.611 139.779 387.316 127.184Z" stroke="#96A9C6"/>
<path id="Path 3 Copy 4" fill-rule="evenodd" clip-rule="evenodd" d="M392.083 147.046C359.173 136.751 325.334 119.579 290.69 150.943C256.047 182.308 234.266 209.783 248.332 245.332C262.397 280.881 319.809 258.739 336.49 290.511C353.172 322.283 316.519 351.12 332.321 379.397C348.123 407.674 360.273 425.797 411.055 407.818C461.837 389.838 457.155 344.09 495.773 317.301C534.39 290.511 576.171 250.406 518.833 178.844C461.494 107.282 424.992 157.341 392.083 147.046Z" stroke="#96A9C6"/>
<path id="Path 3 Copy 3" fill-rule="evenodd" clip-rule="evenodd" d="M401.225 161.406C374.507 153.046 347.034 139.101 318.907 164.571C290.78 190.041 273.097 212.352 284.517 241.22C295.936 270.088 342.548 252.107 356.091 277.908C369.635 303.709 339.877 327.125 352.706 350.088C365.535 373.051 375.4 387.768 416.629 373.168C457.858 358.567 454.057 321.417 485.409 299.663C516.762 277.908 550.684 245.34 504.132 187.228C457.579 129.116 427.944 169.766 401.225 161.406Z" stroke="#96A9C6"/>
</g>
</svg>
